<svg width="32" height="32" viewBox="0 0 32 32" fill="none" xmlns="http://www.w3.org/2000/svg">
<path d="M24.0002 2.66675V5.33341M8.00016 2.66675V5.33341M15.9948 17.3334H16.0055M15.9948 22.6667H16.0055M21.3215 17.3334H21.3335M10.6668 17.3334H10.6788M10.6668 22.6667H10.6788M4.66683 10.6667H27.3335M4.00016 10.6667H28.0002M3.3335 16.3241C3.3335 10.5147 3.3335 7.60941 5.00283 5.80408C6.67216 4.00008 9.36016 4.00008 14.7335 4.00008H17.2668C22.6402 4.00008 25.3282 4.00008 26.9975 5.80541C28.6668 7.60941 28.6668 10.5147 28.6668 16.3254V17.0094C28.6668 22.8187 28.6668 25.7241 26.9975 27.5294C25.3282 29.3334 22.6402 29.3334 17.2668 29.3334H14.7335C9.36016 29.3334 6.67216 29.3334 5.00283 27.5281C3.3335 25.7241 3.3335 22.8187 3.3335 17.0081V16.3241Z" stroke="#212122" stroke-width="1.5" stroke-linecap="round" stroke-linejoin="round"/>
</svg>
