<svg width="32" height="32" viewBox="0 0 32 32" fill="none" xmlns="http://www.w3.org/2000/svg">
<path d="M6.9492 15.6228L4.30934 18.2627C4.15931 18.4127 4.07502 18.6162 4.07502 18.8284C4.07502 19.0405 4.15931 19.244 4.30934 19.3941L12.6061 27.6908C12.6803 27.7651 12.7685 27.824 12.8656 27.8642C12.9627 27.9044 13.0667 27.9251 13.1717 27.9251C13.2768 27.9251 13.3808 27.9044 13.4779 27.8642C13.575 27.824 13.6631 27.7651 13.7374 27.6908L16.3773 25.0509C16.4516 24.9766 16.5105 24.8884 16.5507 24.7914C16.5909 24.6943 16.6116 24.5903 16.6116 24.4852C16.6116 24.3802 16.5909 24.2761 16.5507 24.1791C16.5105 24.082 16.4516 23.9938 16.3773 23.9195L8.08057 15.6228C7.93054 15.4728 7.72706 15.3885 7.51489 15.3885C7.30272 15.3885 7.09923 15.4728 6.9492 15.6228ZM18.2629 4.30911L15.623 6.94897C15.473 7.099 15.3887 7.30249 15.3887 7.51466C15.3887 7.72683 15.473 7.93032 15.623 8.08035L23.9198 16.3771C23.9941 16.4514 24.0822 16.5103 24.1793 16.5505C24.2764 16.5907 24.3804 16.6114 24.4855 16.6114C24.5905 16.6114 24.6945 16.5907 24.7916 16.5505C24.8887 16.5103 24.9768 16.4514 25.0511 16.3771L27.691 13.7372C27.7653 13.6629 27.8242 13.5747 27.8644 13.4777C27.9046 13.3806 27.9253 13.2766 27.9253 13.1715C27.9253 13.0665 27.9046 12.9624 27.8644 12.8654C27.8242 12.7683 27.7653 12.6801 27.691 12.6058L19.3943 4.30911C19.2443 4.15908 19.0408 4.07479 18.8286 4.07479C18.6164 4.07479 18.4129 4.15908 18.2629 4.30911Z" stroke="#212122" stroke-width="1.5" stroke-linecap="round" stroke-linejoin="round"/>
<path d="M12.2289 19.771L19.7713 12.2285M7.89195 28.6334L3.36647 24.1079C3.21644 23.9579 3.13215 23.7544 3.13215 23.5422C3.13215 23.3301 3.21644 23.1266 3.36647 22.9766L5.06352 21.2795C5.21355 21.1295 5.41703 21.0452 5.62921 21.0452C5.84138 21.0452 6.04487 21.1295 6.19489 21.2795L10.7204 25.805C10.8704 25.955 10.9547 26.1585 10.9547 26.3707C10.9547 26.5828 10.8704 26.7863 10.7204 26.9363L9.02332 28.6334C8.87329 28.7834 8.66981 28.8677 8.45764 28.8677C8.24546 28.8677 8.04198 28.7834 7.89195 28.6334ZM28.6337 7.89161L24.1083 3.36612C23.9582 3.21609 23.7548 3.13181 23.5426 3.13181C23.3304 3.13181 23.1269 3.21609 22.9769 3.36612L21.2798 5.06318C21.1298 5.21321 21.0455 5.41669 21.0455 5.62886C21.0455 5.84104 21.1298 6.04452 21.2798 6.19455L25.8053 10.72C25.9554 10.8701 26.1588 10.9543 26.371 10.9543C26.5832 10.9543 26.7867 10.8701 26.9367 10.72L28.6337 9.02298C28.7838 8.87295 28.8681 8.66946 28.8681 8.45729C28.8681 8.24512 28.7838 8.04163 28.6337 7.89161Z" stroke="#212122" stroke-width="1.5" stroke-linecap="round" stroke-linejoin="round"/>
</svg>
