<svg width="34" height="34" viewBox="0 0 34 34" fill="none" xmlns="http://www.w3.org/2000/svg">
<path d="M5.13542 4.25C5.62417 4.25 6.02083 4.64667 6.02083 5.13542V28.8646C6.02083 29.0994 5.92755 29.3246 5.7615 29.4907C5.59545 29.6567 5.37024 29.75 5.13542 29.75C4.90059 29.75 4.67538 29.6567 4.50933 29.4907C4.34328 29.3246 4.25 29.0994 4.25 28.8646V5.13542C4.25 4.64667 4.64667 4.25 5.13542 4.25ZM29.75 6.55633C29.75 4.70404 27.6746 3.60967 26.146 4.658L10.914 15.1003C9.58021 16.014 9.58021 17.9832 10.914 18.8969L26.146 29.3406C27.6746 30.3875 29.75 29.2945 29.75 27.443V6.55633Z" fill="black"/>
</svg>
