<svg width="32" height="32" viewBox="0 0 32 32" fill="none" xmlns="http://www.w3.org/2000/svg">
<path d="M29.3332 29.3335H2.6665" stroke="#212122" stroke-width="1.5" stroke-linecap="round"/>
<path d="M28 29.3334V19.3334C28 18.803 27.7893 18.2943 27.4142 17.9192C27.0391 17.5441 26.5304 17.3334 26 17.3334H22C21.4696 17.3334 20.9609 17.5441 20.5858 17.9192C20.2107 18.2943 20 18.803 20 19.3334V29.3334V6.66675C20 4.78141 20 3.83875 19.4133 3.25341C18.8293 2.66675 17.8867 2.66675 16 2.66675C14.1133 2.66675 13.172 2.66675 12.5867 3.25341C12 3.83741 12 4.78008 12 6.66675V29.3334V12.6667C12 12.1363 11.7893 11.6276 11.4142 11.2525C11.0391 10.8775 10.5304 10.6667 10 10.6667H6C5.46957 10.6667 4.96086 10.8775 4.58579 11.2525C4.21071 11.6276 4 12.1363 4 12.6667V29.3334" stroke="#212122" stroke-width="1.5"/>
</svg>
