<svg width="34" height="34" viewBox="0 0 34 34" fill="none" xmlns="http://www.w3.org/2000/svg">
<path d="M28.8646 4.25C28.3758 4.25 27.9792 4.64667 27.9792 5.13542V28.8646C27.9792 29.0994 28.0725 29.3246 28.2385 29.4907C28.4045 29.6567 28.6298 29.75 28.8646 29.75C29.0994 29.75 29.3246 29.6567 29.4907 29.4907C29.6567 29.3246 29.75 29.0994 29.75 28.8646V5.13542C29.75 4.64667 29.3533 4.25 28.8646 4.25ZM4.25 6.55633C4.25 4.70404 6.32542 3.60967 7.854 4.658L23.086 15.1003C24.4198 16.014 24.4198 17.9832 23.086 18.8969L7.854 29.3406C6.32542 30.3875 4.25 29.2945 4.25 27.443V6.55633Z" fill="black"/>
</svg>
